<?xml version="1.0" encoding="utf-8"?>
<!-- Svg Vector Icons : http://www.onlinewebfonts.com/icon -->
<!DOCTYPE svg PUBLIC "-//W3C//DTD SVG 1.1//EN" "http://www.w3.org/Graphics/SVG/1.1/DTD/svg11.dtd">
<svg version="1.1" xmlns="http://www.w3.org/2000/svg" xmlns:xlink="http://www.w3.org/1999/xlink" x="0px" y="0px" viewBox="0 0 1000 1000" enable-background="new 0 0 1000 1000" xml:space="preserve">
<metadata> Svg Vector Icons : http://www.onlinewebfonts.com/icon </metadata>
<g><g transform="translate(0.000000,511.000000) scale(0.100000,-0.100000)"><path stroke="blue" d="M6637.4,4983.3c-444.9-67.5-954.3-276.2-1294.9-533.9c-825.4-626-1442.2-1736.7-2003.7-3608.5c-104.3-346.7-270-902.1-371.3-1236.6c-98.2-331.4-181-650.5-181-705.7c0-85.9-52.2-153.4-423.4-521.6c-346.7-346.7-435.7-420.4-509.4-420.4c-49.1,0-220.9,43-383.6,95.1c-340.6,110.5-533.9,110.5-788.6,0c-193.3-82.9-417.3-306.8-509.4-509.4c-98.2-214.8-95.1-552.3,3.1-773.3c125.8-282.3,448-527.7,761-579.9c119.7-18.4,125.8-24.5,144.2-147.3c49.1-309.9,291.5-626,595.3-764.1c199.4-92.1,549.3-92.1,748.7,0c325.2,147.3,567.7,484.8,598.3,828.5c12.3,144.2-3.1,233.2-79.8,472.5c-52.2,162.6-95.1,334.4-95.1,383.6c0,73.6,73.6,162.6,423.4,509.4c398.9,395.8,426.5,420.4,558.5,429.6c76.7,9.2,420.4,101.3,767.1,205.6c346.7,104.3,880.6,267,1190.5,359c1095.5,325.2,2003.7,714.9,2602.1,1113.8c331.4,217.8,727.2,583,938.9,862.2c567.7,745.6,724.1,1773.6,417.3,2715.6c-371.3,1147.6-1429.9,1871.7-2703.3,1853.3C6904.3,5007.8,6723.2,4995.6,6637.4,4983.3z M7803.4,4679.5c883.7-233.2,1521.9-871.4,1767.4-1767.4c58.3-205.6,67.5-325.3,67.5-721.1c0-426.5-9.2-503.2-82.8-745.6C9300.7,604.6,8714.7-18.3,7668.3-552.2c-613.7-313-1242.7-540.1-2688-966.6c-454.1-135-899-267-988-297.6c-217.9-70.6-297.6-33.8-622.9,294.6c-306.8,303.8-365.1,411.2-309.9,576.9c18.4,61.4,159.6,527.8,309.9,1034.1c150.4,506.3,343.7,1126.1,429.6,1377.7c705.7,2065.1,1549.6,3037.8,2844.4,3271C6892,4783.8,7527.2,4750.1,7803.4,4679.5z M3200.7-1696.7l282.3-270l-441.9-448l-438.8-448v-153.4c0-85.9,43-288.4,95.1-457.2c73.6-236.3,89-337.5,76.7-454.1c-24.6-208.7-153.4-408.1-337.5-524.7c-135-82.9-178-92.1-386.6-92.1s-251.6,9.2-386.6,92.1c-217.9,138.1-322.2,319.1-346.7,619.8l-18.4,239.3l-236.3,18.4c-294.6,24.5-481.7,122.7-607.5,325.2C159.8-2786,436-2175.4,966.9-2117.1c113.5,12.3,217.8-6.1,451-76.7c168.8-55.3,371.3-95.1,457.2-95.1h156.5l429.6,429.6c239.3,236.3,438.8,429.6,444.9,429.6C2912.2-1429.8,3044.2-1549.4,3200.7-1696.7z"/></g></g>
</svg>